<svg width="190" height="118" viewBox="0 0 190 118" fill="none" xmlns="http://www.w3.org/2000/svg">
    <rect width="190" height="118" rx="20" fill="white" />
    <path fill-rule="evenodd" clip-rule="evenodd"
        d="M78.1215 34.5358L64.0715 47.8147C63.9643 48.9146 64.0094 50.0241 64.2055 51.1116C64.6432 53.5404 65.8079 55.7791 67.5456 57.5315C69.2833 59.2839 71.512 60.4675 73.937 60.9257L105.106 66.7213C108.226 67.2919 111.445 66.6226 114.08 64.856C116.714 63.0893 118.555 60.3645 119.211 57.2613L106.1 41.5798C103.603 38.5931 99.1014 38.2573 96.1313 40.775L92.5576 43.8057L89.1853 36.7858C88.7252 35.7906 88.0339 34.9198 87.169 34.2459C86.304 33.5721 85.2906 33.1147 84.2131 32.912C81.9679 32.4553 79.7863 32.962 78.1215 34.5358Z"
        fill="#00E499" />
    <path
        d="M111.496 30.9578C114.452 30.815 116.733 28.303 116.59 25.347C116.447 22.3911 113.935 20.1106 110.979 20.2534C108.023 20.3962 105.742 22.9082 105.885 25.8642C106.028 28.8201 108.54 31.1006 111.496 30.9578Z"
        fill="#FFB229" />
    <path fill-rule="evenodd" clip-rule="evenodd"
        d="M64.0716 47.8147L78.1216 34.5358C79.7863 32.9624 81.9679 32.4557 84.2125 32.9122C85.2901 33.1149 86.3036 33.5721 87.1687 34.246C88.0337 34.9198 88.7252 35.7906 89.1854 36.7859L92.5577 43.8058L96.1318 40.7754C99.1014 38.2577 103.603 38.5935 106.101 41.5802L119.212 57.2618C119.23 57.1764 119.247 57.0907 119.263 57.0045L125.182 25.1722C125.761 22.0074 125.064 18.742 123.243 16.0895C121.422 13.4369 118.626 11.6127 115.464 11.0154L84.2953 5.21966C81.1305 4.64066 77.8652 5.33768 75.2126 7.15845C72.56 8.97923 70.7358 11.7758 70.1385 14.9372L64.2195 46.7692C64.1545 47.1187 64.1052 47.4672 64.0716 47.8147ZM105.971 24.6502C106.165 23.6081 106.663 22.6468 107.403 21.8879C108.143 21.1291 109.092 20.6068 110.129 20.387C111.166 20.1672 112.245 20.2599 113.229 20.6532C114.213 21.0466 115.059 21.723 115.659 22.5969C116.259 23.4709 116.586 24.503 116.599 25.563C116.612 26.6229 116.311 27.6629 115.733 28.5516C115.155 29.4402 114.327 30.1376 113.353 30.5554C112.379 30.9733 111.302 31.0929 110.26 30.8991C108.863 30.6393 107.626 29.8349 106.821 28.663C106.017 27.4911 105.711 26.0477 105.971 24.6502Z"
        fill="#F0F0F0" />
    <path fill-rule="evenodd" clip-rule="evenodd"
        d="M128.723 51.0498L112.759 61.9531C112.48 63.0225 112.35 64.1252 112.373 65.2301C112.423 67.6975 113.221 70.0915 114.661 72.0954C116.102 74.0994 118.116 75.6188 120.439 76.4528L150.308 87.0794C153.299 88.1337 156.584 87.9793 159.464 86.6491C162.343 85.3188 164.59 82.9176 165.726 79.9562L155.245 62.4075C153.249 59.0651 148.856 58.0253 145.527 60.0445L141.521 62.4752L139.295 55.0123C138.997 53.9571 138.452 52.9883 137.703 52.1868C136.955 51.3853 136.026 50.7742 134.994 50.4045C132.849 49.6003 130.615 49.7575 128.723 51.0498Z"
        fill="#00E499" />
    <path
        d="M162.245 52.7666C165.186 53.0905 167.834 50.9685 168.158 48.0269C168.482 45.0853 166.36 42.438 163.418 42.1141C160.476 41.7901 157.829 43.9121 157.505 46.8537C157.181 49.7953 159.303 52.4426 162.245 52.7666Z"
        fill="#FFB229" />
    <path fill-rule="evenodd" clip-rule="evenodd"
        d="M112.759 61.9532L128.723 51.0498C130.615 49.7578 132.849 49.6006 134.994 50.4046C136.026 50.7742 136.955 51.3853 137.703 52.1868C138.451 52.9883 138.997 53.9571 139.295 55.0123L141.521 62.4753L145.528 60.045C148.856 58.0257 153.249 59.0656 155.246 62.408L165.727 79.9568C165.758 79.8753 165.788 79.7933 165.817 79.7107L176.67 49.2059C177.74 46.1716 177.565 42.8373 176.185 39.9313C174.804 37.0253 172.329 34.7839 169.301 33.6967L139.432 23.0699C136.397 22.0002 133.063 22.1749 130.157 23.5557C127.251 24.9365 125.01 27.4113 123.923 30.4394L113.07 60.9439C112.951 61.2788 112.847 61.6152 112.759 61.9532ZM157.781 45.6683C158.136 44.6696 158.78 43.7988 159.63 43.1658C160.48 42.5328 161.499 42.1662 162.558 42.1123C163.616 42.0584 164.667 42.3196 165.577 42.8629C166.488 43.4062 167.216 44.2072 167.671 45.1646C168.126 46.122 168.287 47.1928 168.133 48.2417C167.98 49.2905 167.518 50.2701 166.808 51.0568C166.097 51.8435 165.17 52.4019 164.142 52.6613C163.114 52.9207 162.033 52.8695 161.034 52.5142C159.695 52.0377 158.6 51.0488 157.99 49.765C157.38 48.4811 157.304 47.0075 157.781 45.6683Z"
        fill="#F0F0F0" />
    <path fill-rule="evenodd" clip-rule="evenodd"
        d="M34.1099 57.8322L29.64 76.6405C30.1533 77.6192 30.7993 78.5223 31.5596 79.3243C33.2573 81.1155 35.4587 82.3492 37.8727 82.862C40.2868 83.3749 42.7996 83.1428 45.0788 82.1965L74.3228 69.955C77.245 68.7215 79.5707 66.3966 80.8052 63.4748C82.0397 60.5531 82.0856 57.2649 80.9331 54.3098L61.3706 48.3836C57.6447 47.2549 53.6959 49.4421 52.5923 53.1761L51.2652 57.67L44.5962 53.6481C43.6658 53.0681 42.6102 52.7188 41.5174 52.6295C40.4246 52.5401 39.3263 52.7133 38.314 53.1345C36.186 53.9835 34.6393 55.6033 34.1099 57.8322Z"
        fill="#00E499" />
    <path
        d="M60.0595 36.542C62.4533 34.802 62.9832 31.4508 61.2432 29.0571C59.5031 26.6633 56.1519 26.1333 53.7582 27.8734C51.3644 29.6134 50.8344 32.9646 52.5745 35.3584C54.3146 37.7522 57.6657 38.2821 60.0595 36.542Z"
        fill="#FFB229" />
    <path fill-rule="evenodd" clip-rule="evenodd"
        d="M29.64 76.6405L34.1098 57.8322C34.6394 55.6036 36.1861 53.9838 38.3135 53.135C39.3258 52.7137 40.4242 52.5404 41.5171 52.6296C42.6099 52.7189 43.6656 53.0681 44.5962 53.6481L51.2652 57.67L52.5928 53.1762C53.6959 49.4424 57.6452 47.255 61.3711 48.3837L80.9339 54.3098C80.9019 54.2287 80.869 54.1478 80.8352 54.0669L68.333 24.2001C67.082 21.2359 64.7089 18.8872 61.7318 17.6671C58.7548 16.447 55.4159 16.4547 52.4445 17.6884L23.2001 29.9301C20.2359 31.181 17.8872 33.5542 16.6671 36.5312C15.447 39.5082 15.4546 42.8471 16.6884 45.8185L29.1904 75.685C29.3277 76.0129 29.4775 76.3314 29.64 76.6405ZM51.9806 34.2961C51.5713 33.3183 51.4612 32.2411 51.6641 31.2007C51.867 30.1603 52.3738 29.2034 53.1206 28.4511C53.8673 27.6988 54.8203 27.1848 55.8592 26.9741C56.898 26.7634 57.976 26.8655 58.9569 27.2675C59.9377 27.6695 60.7773 28.3533 61.3695 29.2324C61.9617 30.1116 62.2799 31.1466 62.2838 32.2066C62.2878 33.2666 61.9773 34.3039 61.3917 35.1875C60.8061 36.071 59.9717 36.7611 58.9939 37.1704C57.6827 37.7193 56.2072 37.7248 54.892 37.1857C53.5767 36.6467 52.5295 35.6073 51.9806 34.2961Z"
        fill="#F0F0F0" />
    <mask id="mask0_247_982" style="mask-type:alpha" maskUnits="userSpaceOnUse" x="0" y="0"
        width="190" height="118">
        <rect width="190" height="118" rx="20" fill="white" />
    </mask>
    <g mask="url(#mask0_247_982)">
        <path opacity="0.1"
            d="M10 41.0605C-14.3624 39.7071 -25.8333 61.3939 -28.5 71.5605V74.0605L-36 85.5605C-29 96.8939 -14.5 120.461 -12.5 124.061C-10.5 127.661 7 134.894 15.5 138.061C34.8333 136.727 77 134.861 91 138.061C108.5 142.061 123 138.561 163.5 134.061C195.9 130.461 208 112.561 210 104.061C205.667 89.8939 195.9 59.2605 191.5 50.0605C186 38.5605 162 42.5 159.5 65C157.475 83.225 129.5 88.0605 123 71.5605C116.5 55.0605 103.5 42.5605 88.5 51.5605C73.5 60.5605 70 65 51 65C27 65 37 42.5605 10 41.0605Z"
            fill="#FF5064" />
        <path opacity="0.5"
            d="M-4 43C-28.3624 41.6465 -39.8333 63.3333 -42.5 73.5V76L-50 87.5C-43 98.8333 -28.5 122.4 -26.5 126C-24.5 129.6 -7 136.833 1.5 140C20.8333 138.667 63 136.8 77 140C94.5 144 109 140.5 149.5 136C181.9 132.4 194 114.5 196 106C191.667 91.8333 200.4 69.7 196 60.5C190.5 49 157.5 45 155 67.5C152.975 85.725 115.5 90 109 73.5C102.5 57 83.5 51.5 68.5 60.5C53.5 69.5 58.5 76.5 39.5 76.5C15.5 76.5 23 44.5 -4 43Z"
            fill="#FF5064" />
        <path
            d="M14 46C-10.3624 44.6465 -21.8333 66.3333 -24.5 76.5V79L-32 90.5C-25 101.833 -10.5 125.4 -8.5 129C-6.5 132.6 11 139.833 19.5 143C38.8333 141.667 81 139.8 95 143C112.5 147 127 143.5 167.5 139C199.9 135.4 212 117.5 214 109C209.667 94.8333 199.9 64.2 195.5 55C190 43.5 167.5 43 165 65.5C162.975 83.725 133.5 90 127 73.5C120.5 57 105.5 46 90.5 55C75.5 64 70.5 72 56.5 72C32.5 72 41 47.5 14 46Z"
            fill="#FF5064" />
    </g>
</svg>
