<svg width="40" height="40" viewBox="0 0 40 40" fill="none" xmlns="http://www.w3.org/2000/svg">
<path fill-rule="evenodd" clip-rule="evenodd" d="M8.57943 1.42859C7.78054 1.42859 6.99503 1.63206 6.29686 2.01953C5.58526 2.38267 4.9846 2.93122 4.55855 3.60753C4.12597 4.29413 3.88989 5.08613 3.87589 5.8975L3.87569 34.078L3.87589 34.1026C3.88989 34.914 4.12597 35.706 4.55855 36.3926C4.9846 37.0689 5.58526 37.6174 6.29686 37.9806C6.99503 38.368 7.78054 38.5714 8.57943 38.5714C9.39029 38.5714 10.1874 38.3617 10.8933 37.9629C10.9098 37.9537 10.926 37.944 10.942 37.934L33.7313 23.839C34.4385 23.4817 35.0353 22.9384 35.4571 22.2668C35.8936 21.5718 36.1253 20.7678 36.1253 19.9472C36.1253 19.1265 35.8936 18.3225 35.4571 17.6276C35.0348 16.9552 34.4371 16.4114 33.7291 16.0542L10.9379 2.06339C10.9233 2.05436 10.9084 2.04559 10.8933 2.0371C10.1874 1.63821 9.39029 1.42859 8.57943 1.42859Z" fill="white"/>
</svg>
