<svg width="40" height="40" viewBox="0 0 40 40" fill="none" xmlns="http://www.w3.org/2000/svg">
<path fill-rule="evenodd" clip-rule="evenodd" d="M39.1744 1.01427C39.6631 1.55305 39.9178 2.2639 39.8825 2.99047C39.8471 3.71703 39.5246 4.39979 38.9858 4.88856C33.5572 9.81141 29.7572 13.9886 26.5944 18.9228C23.4229 23.8771 20.8144 29.7143 17.9144 38.0457C17.7603 38.4877 17.4957 38.8829 17.1458 39.1937C16.7958 39.5045 16.3722 39.7206 15.9151 39.8214C15.458 39.9222 14.9828 39.9044 14.5346 39.7696C14.0863 39.6348 13.6801 39.3876 13.3544 39.0514L0.888662 26.1943C0.62673 25.9381 0.418763 25.6321 0.277037 25.2943C0.135311 24.9565 0.0626978 24.5937 0.0634829 24.2273C0.0642679 23.861 0.138436 23.4985 0.281608 23.1613C0.424781 22.8241 0.634057 22.5189 0.897084 22.2639C1.16011 22.0089 1.47156 21.8092 1.81304 21.6765C2.15453 21.5438 2.51913 21.4809 2.88533 21.4915C3.25153 21.502 3.61191 21.5858 3.94519 21.7379C4.27847 21.8901 4.5779 22.1074 4.8258 22.3771L14.2372 32.08C16.6658 25.6057 19.0658 20.5028 21.9744 15.9657C25.4887 10.48 29.6601 5.93713 35.3001 0.825698C35.8389 0.336962 36.5497 0.0822626 37.2763 0.117626C38.0028 0.15299 38.6856 0.47552 39.1744 1.01427Z" fill="#FF5064"/>
</svg>
