<svg width="44" height="44" viewBox="0 0 44 44" fill="none" xmlns="http://www.w3.org/2000/svg">
<g clip-path="url(#clip0_81_4252)">
<path d="M44 34.8333C44 35.8472 43.1787 36.6667 42.1667 36.6667H36.6667V42.1667C36.6667 43.1805 35.8453 44 34.8333 44C33.8213 44 33 43.1805 33 42.1667V36.6667H27.5C26.488 36.6667 25.6667 35.8472 25.6667 34.8333C25.6667 33.8195 26.488 33 27.5 33H33V27.5C33 26.4862 33.8213 25.6667 34.8333 25.6667C35.8453 25.6667 36.6667 26.4862 36.6667 27.5V33H42.1667C43.1787 33 44 33.8195 44 34.8333ZM29.3333 12.8333C30.3435 12.8333 31.1667 12.012 31.1667 11C31.1667 9.988 30.3435 9.16667 29.3333 9.16667C28.3232 9.16667 27.5 9.988 27.5 11C27.5 12.012 28.3232 12.8333 29.3333 12.8333ZM8.81467 16.7768L0 25.5915V9.16667C0 4.11217 4.11217 0 9.16667 0H31.1667C36.2212 0 40.3333 4.11217 40.3333 9.16667V22H34.8333C31.9275 22 29.5442 24.2642 29.348 27.1205L19.0043 16.7768C16.1938 13.9663 11.6233 13.9663 8.81467 16.7768ZM23.8333 11C23.8333 14.0323 26.301 16.5 29.3333 16.5C32.3657 16.5 34.8333 14.0323 34.8333 11C34.8333 7.96767 32.3657 5.5 29.3333 5.5C26.301 5.5 23.8333 7.96767 23.8333 11ZM22 34.8333C22 32.1512 23.9287 29.9127 26.4733 29.4305L16.412 19.3692C15.0333 17.9923 12.7893 17.9905 11.407 19.3692L0 30.7762V31.1667C0 36.2212 4.11217 40.3333 9.16667 40.3333H22V34.8333Z" fill="#FF5064"/>
</g>
<defs>
<clipPath id="clip0_81_4252">
<rect width="44" height="44" fill="white"/>
</clipPath>
</defs>
</svg>
