<svg width="67" height="43" viewBox="0 0 67 43" fill="none" xmlns="http://www.w3.org/2000/svg">
<path d="M24.0966 20.0006C29.0851 10.1736 41.4941 5.81739 57.3258 8.30962C55.1317 10.238 51.1935 9.11914 50.2128 12.4699C50.4852 12.8575 50.6537 13.2907 50.7999 13.284C55.2501 12.9469 59.7053 12.679 64.1362 12.1468C65.6341 11.9685 66.6485 10.5917 65.8991 9.17684C64.3145 6.18766 62.7956 3.10162 59.5941 0.447205C59.2552 2.36467 59.0133 3.7063 58.8422 4.70184C54.1827 4.3505 49.6271 3.63524 45.057 3.74921C34.2752 4.00693 25.5347 8.34326 19.8902 17.845C18.9986 19.3508 17.8921 19.7399 16.308 20.0365C9.67554 21.2687 4.63608 24.849 1.52827 30.7904C0.398498 32.9479 -0.719568 35.3661 1.48712 38.3188C2.10115 33.748 4.13607 30.4881 7.24458 27.8528C10.2953 25.2692 13.6391 23.3905 17.6745 23.2968C18.7415 26.6565 19.3654 30.0077 20.8568 32.9032C22.3565 35.7942 24.431 38.5406 26.8084 40.7958C29.2492 43.1093 32.632 42.9554 35.1009 41.2799C37.5699 39.6043 38.5438 36.6988 37.49 33.3834C35.8308 28.1649 32.3638 24.3593 27.5616 21.692C26.4379 21.0737 25.253 20.5603 24.0966 20.0006ZM22.8813 23.6314C28.377 25.6386 31.5794 29.0114 33.5238 33.6658C34.1576 35.1839 34.5218 36.8572 32.7014 37.9482C31.1463 38.876 29.7775 38.0403 28.7401 36.9855C25.3064 33.5008 23.3597 29.3199 22.8813 23.6314Z" fill="#7431E2"/>
</svg>
