<svg width="52" height="52" viewBox="0 0 52 52" fill="none" xmlns="http://www.w3.org/2000/svg">
<g clip-path="url(#clip0_255_1064)">
<path fill-rule="evenodd" clip-rule="evenodd" d="M17.0857 6.31439C17.2587 6.08374 17.483 5.89653 17.7409 5.7676C17.9988 5.63866 18.2831 5.57153 18.5714 5.57153H33.4286C33.7169 5.57153 34.0012 5.63866 34.2591 5.7676C34.517 5.89653 34.7413 6.08374 34.9143 6.31439L39.9286 13.0001H46.4286C47.1602 13.0001 47.8847 13.1442 48.5607 13.4242C49.2366 13.7042 49.8508 14.1146 50.3682 14.6319C50.8855 15.1493 51.2959 15.7635 51.5759 16.4394C51.8559 17.1154 52 17.8399 52 18.5715V40.8573C52 42.3349 51.413 43.752 50.3682 44.7968C49.3233 45.8417 47.9062 46.4287 46.4286 46.4287H5.57143C4.09379 46.4287 2.67668 45.8417 1.63183 44.7968C0.586988 43.752 0 42.3349 0 40.8573L0 18.5715C0 17.0939 0.586988 15.6768 1.63183 14.6319C2.67668 13.5871 4.09379 13.0001 5.57143 13.0001H12.0714L17.0857 6.31439ZM35.1409 28.641C35.1409 31.0653 34.1778 33.3903 32.4636 35.1045C30.7493 36.8188 28.4243 37.7818 26 37.7818C23.5757 37.7818 21.2507 36.8188 19.5364 35.1045C17.8222 33.3903 16.8591 31.0653 16.8591 28.641C16.8591 26.2167 17.8222 23.8916 19.5364 22.1774C21.2507 20.4632 23.5757 19.5001 26 19.5001C28.4243 19.5001 30.7493 20.4632 32.4636 22.1774C34.1778 23.8916 35.1409 26.2167 35.1409 28.641Z" fill="#FF5064"/>
</g>
<defs>
<clipPath id="clip0_255_1064">
<rect width="52" height="52" fill="white"/>
</clipPath>
</defs>
</svg>
