<svg width="24" height="24" viewBox="0 0 24 24" fill="none" xmlns="http://www.w3.org/2000/svg">
<g clip-path="url(#clip0_93_18867)">
<path d="M17.9534 2.10938V21.8906C17.9534 23.0536 17.007 24 15.844 24H2.10962C0.94665 24 0.000244141 23.0536 0.000244141 21.8906V2.10938C0.000244141 0.946406 0.94665 0 2.10962 0H15.844C17.007 0 17.9534 0.946406 17.9534 2.10938Z" fill="#D9E7FE"/>
<path d="M14.9534 5.25C14.9534 5.63812 14.6384 5.95312 14.2502 5.95312H3.75024C3.36212 5.95312 3.04712 5.63812 3.04712 5.25C3.04712 4.86187 3.36212 4.54688 3.75024 4.54688H14.2502C14.6384 4.54688 14.9534 4.86187 14.9534 5.25Z" fill="#425796"/>
<path d="M14.9534 5.25C14.9534 5.63812 14.6384 5.95312 14.2502 5.95312H8.95337V4.54688H14.2502C14.6384 4.54688 14.9534 4.86187 14.9534 5.25Z" fill="#283758"/>
<path d="M12.7034 9C12.7034 9.38812 12.3884 9.70312 12.0002 9.70312H3.75024C3.36212 9.70312 3.04712 9.38812 3.04712 9C3.04712 8.61187 3.36212 8.29688 3.75024 8.29688H12.0002C12.3884 8.29688 12.7034 8.61187 12.7034 9Z" fill="#425796"/>
<path d="M12.7034 9C12.7034 9.38812 12.3884 9.70312 12.0002 9.70312H8.95337V8.29688H12.0002C12.3884 8.29688 12.7034 8.61187 12.7034 9Z" fill="#283758"/>
<path d="M10.4534 12.75C10.4534 13.1381 10.1384 13.4531 9.75024 13.4531H3.75024C3.36212 13.4531 3.04712 13.1381 3.04712 12.75C3.04712 12.3619 3.36212 12.0469 3.75024 12.0469H9.75024C10.1384 12.0469 10.4534 12.3619 10.4534 12.75Z" fill="#425796"/>
<path d="M10.4534 12.75C10.4534 13.1381 10.1384 13.4531 9.75024 13.4531H8.95337V12.0469H9.75024C10.1384 12.0469 10.4534 12.3619 10.4534 12.75Z" fill="#283758"/>
<path d="M23.8053 10.4669C23.7177 10.6151 23.4247 10.916 21.4616 12.8534C20.3239 13.976 18.6252 15.649 16.0808 18.1605C15.9584 18.2819 16.235 18.1338 11.9066 20.1537C11.3089 20.4335 10.6967 19.8087 10.9719 19.219C12.995 14.8844 12.8431 15.1657 12.9683 15.042C15.5042 12.506 17.1889 10.8204 18.3088 9.70054C20.4852 7.5232 20.5278 7.48195 20.533 7.48757C21.0969 7.03195 21.9074 7.07695 22.4145 7.58414C23.6849 8.85445 23.6234 8.78836 23.6849 8.86476C24.0449 9.30351 24.1109 9.94523 23.8053 10.4669Z" fill="#FFE278"/>
<path d="M23.8052 10.4667C23.667 10.7006 23.0154 11.3156 16.0807 18.1603C15.9584 18.2817 16.2349 18.1336 11.9065 20.1535C11.8113 20.198 11.7096 20.2196 11.6093 20.2196C11.4148 20.2196 11.2451 20.1431 11.1213 20.0227L22.9877 8.15674C23.6656 8.83408 23.6342 8.80174 23.6848 8.86455C24.0448 9.3033 24.1109 9.94502 23.8052 10.4667Z" fill="#FFB454"/>
<path d="M23.8054 10.4669C23.7177 10.6151 23.4248 10.916 21.4616 12.8534L21.4579 12.8501L19.8763 11.2685L18.3088 9.70148V9.70054C20.4852 7.5232 20.5279 7.48195 20.5331 7.48757C21.097 7.03195 21.9074 7.07695 22.4146 7.58414C22.6476 7.81711 22.8356 8.00507 22.9879 8.15695C23.6666 8.83523 23.6348 8.80242 23.6849 8.86476C24.0449 9.30351 24.111 9.94523 23.8054 10.4669Z" fill="#DD5958"/>
<path d="M23.8053 10.4667C23.7176 10.6149 23.4247 10.9158 21.4615 12.8531L21.4578 12.8499L19.8762 11.2683L22.9878 8.15674C23.6665 8.83502 23.6347 8.80221 23.6848 8.86455C24.0448 9.3033 24.1109 9.94502 23.8053 10.4667Z" fill="#D8225B"/>
</g>
<defs>
<clipPath id="clip0_93_18867">
<rect width="24" height="24" fill="white"/>
</clipPath>
</defs>
</svg>
