<svg width="24" height="24" viewBox="0 0 24 24" fill="none" xmlns="http://www.w3.org/2000/svg">
<path fill-rule="evenodd" clip-rule="evenodd" d="M14.1425 0.856638C14.1424 0.673769 14.0838 0.495728 13.9753 0.348532C13.8668 0.201337 13.714 0.0927038 13.5394 0.0385077C13.3647 -0.0156884 13.1773 -0.0126063 13.0046 0.0473037C12.8318 0.107214 12.6827 0.220811 12.5791 0.371495L3.15051 14.0858C3.06215 14.2145 3.01062 14.3649 3.00147 14.5207C2.99233 14.6765 3.02591 14.8319 3.0986 14.9701C3.17129 15.1082 3.28033 15.2239 3.41395 15.3046C3.54757 15.3853 3.70069 15.428 3.8568 15.4281H8.99965V23.1424C8.99976 23.3252 9.05835 23.5033 9.16686 23.6505C9.27537 23.7977 9.42811 23.9063 9.60277 23.9605C9.77742 24.0147 9.96483 24.0116 10.1376 23.9517C10.3104 23.8918 10.4595 23.7782 10.5631 23.6275L19.9917 9.91321C20.08 9.78451 20.1315 9.63413 20.1407 9.4783C20.1498 9.32246 20.1163 9.16708 20.0436 9.02893C19.9709 8.89079 19.8618 8.77511 19.7282 8.6944C19.5946 8.61368 19.4415 8.57099 19.2854 8.57092H14.1425V0.856638Z" fill="#3A3A3A"/>
</svg>
