<svg width="52" height="52" viewBox="0 0 52 52" fill="none" xmlns="http://www.w3.org/2000/svg">
<path fill-rule="evenodd" clip-rule="evenodd" d="M52 40.8573C52 41.5889 51.8559 42.3134 51.5759 42.9893C51.2959 43.6653 50.8855 44.2795 50.3682 44.7968C49.8508 45.3142 49.2366 45.7246 48.5607 46.0046C47.8847 46.2846 47.1602 46.4287 46.4286 46.4287H5.57143C4.83978 46.4287 4.11529 46.2846 3.43934 46.0046C2.76338 45.7246 2.14919 45.3142 1.63183 44.7968C1.11448 44.2795 0.70409 43.6653 0.4241 42.9893C0.144109 42.3134 0 41.5889 0 40.8573L0 11.143C0 9.66533 0.586988 8.24821 1.63183 7.20337C2.67668 6.15852 4.09379 5.57153 5.57143 5.57153H46.4286C47.9062 5.57153 49.3233 6.15852 50.3682 7.20337C51.413 8.24821 52 9.66533 52 11.143V40.8573ZM40.742 18.449C40.742 19.1645 40.6011 19.8731 40.3272 20.5341C40.0534 21.1952 39.652 21.7959 39.1461 22.3019C38.6401 22.8079 38.0394 23.2092 37.3783 23.4831C36.7172 23.7569 36.0087 23.8978 35.2931 23.8978C34.5776 23.8978 33.869 23.7569 33.208 23.4831C32.5469 23.2092 31.9462 22.8079 31.4402 22.3019C30.9342 21.7959 30.5329 21.1952 30.2591 20.5341C29.9852 19.8731 29.8443 19.1645 29.8443 18.449C29.8443 17.0038 30.4184 15.6179 31.4402 14.596C32.4621 13.5742 33.848 13.0001 35.2931 13.0001C36.7383 13.0001 38.1242 13.5742 39.1461 14.596C40.1679 15.6179 40.742 17.0038 40.742 18.449ZM7.27257 24.9378C12.6932 24.8152 18.0014 26.4937 22.3661 29.7104C26.7308 32.9271 29.9055 37.5005 31.3931 42.7144H5.57143C5.07888 42.7144 4.60651 42.5187 4.25823 42.1704C3.90995 41.8222 3.71429 41.3498 3.71429 40.8573V25.1644C4.87686 25.0084 6.05057 24.9341 7.22429 24.9378H7.27257ZM35.2337 42.7144H46.4286C46.6725 42.7144 46.914 42.6664 47.1393 42.573C47.3646 42.4797 47.5693 42.3429 47.7418 42.1704C47.9142 41.998 48.051 41.7933 48.1444 41.5679C48.2377 41.3426 48.2857 41.1011 48.2857 40.8573V34.5764C45.9366 33.9108 43.5067 33.5733 41.0651 33.5735H41.0577C38.0157 33.5681 34.9949 34.0805 32.1249 35.089C33.5214 37.4512 34.5763 40.0178 35.2337 42.7144Z" fill="#FF5064"/>
</svg>
