<svg width="24" height="24" viewBox="0 0 24 24" fill="none" xmlns="http://www.w3.org/2000/svg">
<path fill-rule="evenodd" clip-rule="evenodd" d="M5.48459 2.00862C4.51221 2.1243 3.74894 2.40148 2.96951 2.92199C1.40894 3.96414 0.361865 5.71969 0.0443454 7.82644C-0.00886261 8.17945 -0.0159906 9.30419 0.0327774 9.64972C0.231473 11.0574 0.748577 12.1842 1.64723 13.1679C1.74477 13.2746 3.10439 14.6293 4.66859 16.1782C6.23279 17.7271 7.91219 19.3904 8.40059 19.8743C8.89379 20.3629 9.37451 20.8176 9.48182 20.8968C10.1406 21.3835 10.8537 21.6257 11.6273 21.6257C12.4074 21.6257 13.1259 21.3855 13.7646 20.911C13.9693 20.7589 14.0506 20.6795 17.7115 17.0566C21.8746 12.9369 21.7794 13.0344 22.1399 12.5188C22.6922 11.7289 23.0529 10.797 23.2133 9.74572C23.2734 9.35171 23.2728 8.24598 23.2123 7.83772C23.0334 6.63148 22.6336 5.5834 21.9947 4.64572C20.9968 3.18131 19.6007 2.28059 17.9526 2.03793C17.8239 2.01899 17.5329 2.00661 17.2326 2.00733C16.6978 2.0086 16.4114 2.03977 15.918 2.15049C14.591 2.44828 13.1741 3.24047 11.8825 4.4068L11.6318 4.63317L11.4682 4.48321C9.99717 3.13475 8.40947 2.29427 6.87659 2.05249C6.63575 2.0145 5.68665 1.9846 5.48459 2.00862ZM5.37595 3.03851C4.62122 3.14877 3.8866 3.46516 3.24059 3.95821C3.01667 4.12912 2.59492 4.54914 2.38159 4.81372C1.70205 5.65641 1.26309 6.6562 1.06447 7.81372C0.991409 8.23943 0.984689 9.25307 1.05223 9.66172C1.22644 10.7161 1.63048 11.6131 2.26682 12.3583C2.50029 12.6317 9.97034 20.0119 10.1261 20.1231C10.4738 20.3712 10.8557 20.5312 11.2511 20.5946C11.5383 20.6406 12.0201 20.6132 12.2886 20.5356C12.5641 20.456 12.9373 20.273 13.1526 20.1119C13.245 20.0428 13.785 19.5256 14.3526 18.9626C14.9202 18.3996 16.5883 16.7461 18.0594 15.2883C19.5306 13.8305 20.8089 12.5575 20.9001 12.4594C21.5728 11.7361 22.0195 10.7859 22.2043 9.68572C22.2591 9.35922 22.2673 8.32089 22.2176 7.99372C21.9751 6.39589 21.2771 5.05559 20.2086 4.13598C18.0245 2.25625 15.0809 2.73748 12.2555 5.43614C12.0765 5.60718 11.8907 5.76268 11.8355 5.78773C11.7121 5.8438 11.5475 5.84517 11.4329 5.7911C11.3847 5.76834 11.1633 5.58078 10.9409 5.37429C10.476 4.94257 10.3265 4.81497 9.96059 4.53736C8.86499 3.70617 7.77335 3.20814 6.69659 3.04825C6.32939 2.99375 5.7136 2.98919 5.37595 3.03851Z" fill="#3A3A3A"/>
</svg>
