<svg width="24" height="24" viewBox="0 0 24 24" fill="none" xmlns="http://www.w3.org/2000/svg">
    <g clip-path="url(#clip0_194_8965)">
        <path fill-rule="evenodd" clip-rule="evenodd"
            d="M5.57143 0.857143V5.14286H18.4286V0.857143C18.4286 0.629814 18.3383 0.411797 18.1775 0.251051C18.0168 0.0903059 17.7988 0 17.5714 0H6.42857C6.20124 0 5.98323 0.0903059 5.82248 0.251051C5.66173 0.411797 5.57143 0.629814 5.57143 0.857143ZM6.66514 16.2857V22.2857C6.66514 22.5137 6.74571 22.7314 6.888 22.8926C6.95485 22.9701 7.03741 23.0325 7.13022 23.0756C7.22302 23.1188 7.32395 23.1417 7.42629 23.1429H16.5737C16.6761 23.1417 16.777 23.1188 16.8698 23.0756C16.9626 23.0325 17.0452 22.9701 17.112 22.8926C17.2576 22.7241 17.3368 22.5084 17.3349 22.2857V16.2857H6.66514ZM0.771429 8.23543C1.25968 7.78101 1.90272 7.52968 2.56971 7.53257H21.4269C22.092 7.53257 22.74 7.77943 23.2269 8.23543C23.7137 8.69314 23.9983 9.32571 23.9983 9.99943V17.2457C23.9983 17.9194 23.7137 18.552 23.2269 19.0114C22.74 19.4657 22.092 19.7143 21.4269 19.7143H19.476V16.2857C19.476 15.1029 18.516 14.1429 17.3331 14.1429H6.66514C5.48229 14.1429 4.52229 15.1029 4.52229 16.2857V19.7143H2.57143C1.90629 19.7143 1.25829 19.4657 0.771429 19.0114C0.528805 18.7856 0.335143 18.5124 0.202445 18.2086C0.069748 17.9049 0.00084277 17.5772 0 17.2457V9.99943C0 9.32571 0.284571 8.69314 0.771429 8.23543ZM15.9669 10.7109C15.9669 10.1194 16.4469 9.63943 17.0383 9.63943H19.8446C19.9853 9.63943 20.1246 9.66714 20.2546 9.72099C20.3846 9.77483 20.5027 9.85375 20.6022 9.95324C20.7017 10.0527 20.7806 10.1708 20.8344 10.3008C20.8883 10.4308 20.916 10.5702 20.916 10.7109C20.916 10.8516 20.8883 10.9909 20.8344 11.1209C20.7806 11.2509 20.7017 11.369 20.6022 11.4685C20.5027 11.568 20.3846 11.6469 20.2546 11.7007C20.1246 11.7546 19.9853 11.7823 19.8446 11.7823H17.04C16.7558 11.7823 16.4833 11.6694 16.2824 11.4685C16.0815 11.2675 15.9686 10.995 15.9686 10.7109H15.9669Z"
            fill="#8D8D8D" />
    </g>
    <defs>
        <clipPath id="clip0_194_8965">
            <rect width="24" height="24" fill="white" />
        </clipPath>
    </defs>
</svg>
