<svg width="24" height="24" viewBox="0 0 24 24" fill="none" xmlns="http://www.w3.org/2000/svg">
<g clip-path="url(#clip0_93_18854)">
<path d="M24 7.07812V17.6719C24 18.839 23.0579 19.7812 21.8906 19.7812H2.06714C0.928078 19.7812 0 18.8531 0 17.7V7.07812L1.40625 5.625H22.5938L24 7.07812Z" fill="#FEDB41"/>
<path d="M24 4.92188V7.07812H0V2.10938C0 0.942141 0.942141 0 2.10938 0H8.31562C9.11719 0 9.84839 0.45 10.2 1.16714L10.8328 2.4187C10.9594 2.65781 11.1984 2.8125 11.4656 2.8125H21.8906C23.0579 2.8125 24 3.75464 24 4.92188Z" fill="#FEA832"/>
<path d="M20.4844 9.89062H17.625C17.2364 9.89062 16.9219 9.57614 16.9219 9.1875C16.9219 8.79886 17.2364 8.48438 17.625 8.48438H20.4844C20.873 8.48438 21.1875 8.79886 21.1875 9.1875C21.1875 9.57614 20.873 9.89062 20.4844 9.89062Z" fill="#994C0F"/>
<path d="M20.4844 12.7031H17.625C17.2364 12.7031 16.9219 12.3886 16.9219 12C16.9219 11.6114 17.2364 11.2969 17.625 11.2969H20.4844C20.873 11.2969 21.1875 11.6114 21.1875 12C21.1875 12.3886 20.873 12.7031 20.4844 12.7031Z" fill="#994C0F"/>
<path d="M15.5156 13.4062V16.2188C15.5156 16.6125 15.2063 16.9219 14.8125 16.9219C14.4187 16.9219 14.1094 16.6125 14.1094 16.2188V13.4062C14.1094 12.239 13.1672 11.2969 12 11.2969C10.8328 11.2969 9.89062 12.239 9.89062 13.4062V16.2188C9.89062 16.6125 9.5813 16.9219 9.1875 16.9219C8.7937 16.9219 8.48438 16.6125 8.48438 16.2188V13.4062C8.48438 11.4656 10.0594 9.89062 12 9.89062C13.9406 9.89062 15.5156 11.4656 15.5156 13.4062Z" fill="#0D70B2"/>
<path d="M15.5156 13.4062V16.2188C15.5156 16.6125 15.2063 16.9219 14.8125 16.9219C14.4187 16.9219 14.1094 16.6125 14.1094 16.2188V13.4062C14.1094 12.239 13.1672 11.2969 12 11.2969V9.89062C13.9406 9.89062 15.5156 11.4656 15.5156 13.4062Z" fill="#0D70B2"/>
<path d="M14.8125 15.5156H9.1875C8.02027 15.5156 7.07812 16.5046 7.07812 17.6719V21.8906C7.07812 23.0578 8.02027 24 9.1875 24H14.8125C15.9797 24 16.9219 23.0578 16.9219 21.8906V17.6719C16.9219 16.5046 15.9797 15.5156 14.8125 15.5156Z" fill="#FEA832"/>
<path d="M16.9219 17.6719V21.8906C16.9219 23.0578 15.9797 24 14.8125 24H12V15.5156H14.8125C15.9797 15.5156 16.9219 16.5046 16.9219 17.6719Z" fill="#FEA832"/>
<path d="M12.7031 19.0781V20.4844C12.7031 20.8781 12.3938 21.1875 12 21.1875C11.6062 21.1875 11.2969 20.8781 11.2969 20.4844V19.0781C11.2969 18.6843 11.6062 18.375 12 18.375C12.3938 18.375 12.7031 18.6843 12.7031 19.0781Z" fill="#0D70B2"/>
<path d="M12.7031 19.0781V20.4844C12.7031 20.8781 12.3938 21.1875 12 21.1875V18.375C12.3938 18.375 12.7031 18.6843 12.7031 19.0781Z" fill="#0D70B2"/>
<path d="M24 4.92188V7.07812H12V2.8125H21.8906C23.0579 2.8125 24 3.75464 24 4.92188Z" fill="#FEA832"/>
</g>
<defs>
<clipPath id="clip0_93_18854">
<rect width="24" height="24" fill="white"/>
</clipPath>
</defs>
</svg>
