<svg width="25" height="24" viewBox="0 0 25 24" fill="none" xmlns="http://www.w3.org/2000/svg">
<g clip-path="url(#clip0_194_8958)">
<path fill-rule="evenodd" clip-rule="evenodd" d="M8.21921 2.91427C8.29905 2.80781 8.40258 2.72141 8.5216 2.6619C8.64062 2.60239 8.77186 2.57141 8.90492 2.57141H15.7621C15.8951 2.57141 16.0264 2.60239 16.1454 2.6619C16.2644 2.72141 16.3679 2.80781 16.4478 2.91427L18.7621 5.99998H21.7621C22.0998 5.99998 22.4341 6.06649 22.7461 6.19572C23.0581 6.32495 23.3416 6.51436 23.5803 6.75314C23.8191 6.99192 24.0085 7.27539 24.1378 7.58737C24.267 7.89935 24.3335 8.23373 24.3335 8.57141V18.8571C24.3335 19.5391 24.0626 20.1932 23.5803 20.6754C23.0981 21.1576 22.4441 21.4286 21.7621 21.4286H2.90492C2.22294 21.4286 1.56889 21.1576 1.08665 20.6754C0.604414 20.1932 0.333496 19.5391 0.333496 18.8571L0.333496 8.57141C0.333496 7.88943 0.604414 7.23537 1.08665 6.75314C1.56889 6.2709 2.22294 5.99998 2.90492 5.99998H5.90492L8.21921 2.91427ZM16.5524 13.2188C16.5524 14.3378 16.1079 15.4108 15.3167 16.202C14.5255 16.9932 13.4524 17.4377 12.3335 17.4377C11.2146 17.4377 10.1415 16.9932 9.35031 16.202C8.55912 15.4108 8.11464 14.3378 8.11464 13.2188C8.11464 12.0999 8.55912 11.0268 9.35031 10.2357C10.1415 9.44447 11.2146 8.99998 12.3335 8.99998C13.4524 8.99998 14.5255 9.44447 15.3167 10.2357C16.1079 11.0268 16.5524 12.0999 16.5524 13.2188Z" fill="#8D8D8D"/>
</g>
<defs>
<clipPath id="clip0_194_8958">
<rect width="24" height="24" fill="white" transform="translate(0.333496)"/>
</clipPath>
</defs>
</svg>
