<svg width="70" height="70" viewBox="0 0 70 70" fill="none" xmlns="http://www.w3.org/2000/svg">
<g clip-path="url(#clip0_1795_3543)">
<path d="M34.9719 1.64062C40.1875 1.64062 47.3766 19.9195 48.173 20.4148C48.9693 20.9113 68.278 23.2462 69.8793 27.0018C71.4806 30.7573 56.6242 44.343 56.2555 45.2672C55.8881 46.1913 59.5994 65.5086 56.5456 68.0377C53.4917 70.5656 36.0362 60.679 34.9719 60.6741C33.9077 60.6679 17.1576 70.6185 13.3983 68.0377C9.63906 65.457 13.9599 46.313 13.6884 45.2672C13.4168 44.2226 -1.63256 31.974 0.064573 27.0018C1.76171 22.0296 21.0778 20.9297 21.7709 20.4148C22.464 19.8999 29.7564 1.64062 34.9719 1.64062Z" fill="#FFBD39"/>
<path d="M34.9707 3.91016C39.8323 3.91016 46.2054 21.6004 46.9477 22.0637C47.6899 22.5258 66.0143 24.0484 67.5062 27.5496C68.9994 31.0495 54.8238 43.3866 54.4809 44.2481C54.1381 45.1096 57.9243 63.4426 55.0782 65.7984C52.232 68.1554 35.9624 58.6141 34.9694 58.608C33.9765 58.6019 18.3643 68.2046 14.8607 65.7984C11.357 63.3934 16.038 45.5495 15.7848 44.575C15.5316 43.6017 0.851026 32.1851 2.43264 27.5496C4.01426 22.9141 22.6729 22.5442 23.3193 22.0637C23.9669 21.5832 30.1103 3.91016 34.9707 3.91016Z" fill="url(#paint0_linear_1795_3543)"/>
<path d="M6.6894 28.4066C6.35145 25.1106 17.1635 23.1702 17.6415 27.0277C18.1171 30.8841 7.15024 32.8971 6.6894 28.4066Z" fill="white"/>
<path d="M20.4092 25.9444C20.3281 23.8245 23.5614 23.6955 23.7298 25.4344C23.9178 27.381 20.4854 27.9266 20.4092 25.9444Z" fill="white"/>
<g opacity="0.6">
<g opacity="0.6">
<path d="M25.2305 39.0052C25.2305 41.1497 23.3478 42.8886 21.0252 42.8886C18.7025 42.8886 16.8198 41.1497 16.8198 39.0052C16.8198 36.8607 18.7025 35.123 21.0252 35.123C23.3478 35.123 25.2305 36.862 25.2305 39.0052Z" fill="#FF5F82"/>
</g>
<g opacity="0.6">
<path d="M53.959 39.0052C53.959 41.1497 52.0763 42.8886 49.7537 42.8886C47.431 42.8886 45.5483 41.1497 45.5483 39.0052C45.5483 36.8607 47.431 35.123 49.7537 35.123C52.0763 35.123 53.959 36.862 53.959 39.0052Z" fill="#FF5F82"/>
</g>
</g>
<path d="M18.3925 32.8028C17.3172 31.8934 18.9172 27.4238 23.1988 27.4238C27.4791 27.4238 28.998 31.8332 28.1083 32.8028C27.339 33.6409 26.3964 30.2036 23.3032 30.2036C20.2088 30.2024 19.3006 33.5709 18.3925 32.8028Z" fill="#541300"/>
<path d="M42.1083 32.8028C41.033 31.8934 42.633 27.4238 46.9133 27.4238C51.1949 27.4238 52.7126 31.8332 51.8241 32.8028C51.0548 33.6409 50.111 30.2036 47.0178 30.2036C43.9259 30.2024 43.0177 33.5709 42.1083 32.8028Z" fill="#541300"/>
<path d="M42.1647 40.5458C43.374 39.0453 41.6265 37.8876 40.4774 39.28C38.7385 41.3888 31.8406 41.2205 30.0685 39.28C28.8506 37.9466 27.285 38.9593 28.3812 40.5458C30.5539 43.6881 39.208 44.2129 42.1647 40.5458Z" fill="#872A2A"/>
</g>
<defs>
<linearGradient id="paint0_linear_1795_3543" x1="18.7158" y1="19.6809" x2="57.0827" y2="65.7686" gradientUnits="userSpaceOnUse">
<stop offset="0.043" stop-color="#FFF466"/>
<stop offset="0.0753" stop-color="#FFF466"/>
<stop offset="0.3152" stop-color="#FFEC5F"/>
<stop offset="0.6922" stop-color="#FFD54D"/>
<stop offset="0.8602" stop-color="#FFC943"/>
</linearGradient>
<clipPath id="clip0_1795_3543">
<rect width="70" height="70" fill="white"/>
</clipPath>
</defs>
</svg>
