<svg width="70" height="70" viewBox="0 0 70 70" fill="none" xmlns="http://www.w3.org/2000/svg">
<path d="M35.0178 2.05078C40.1633 2.05078 47.256 20.0843 48.0416 20.5729C48.8273 21.0628 67.8769 23.3664 69.4567 27.0716C71.0365 30.7767 56.3795 44.18 56.0158 45.093C55.6532 46.0047 59.3148 65.0628 56.3019 67.558C53.289 70.052 36.0677 60.2992 35.0178 60.2932C33.9678 60.2871 17.4425 70.1041 13.7337 67.558C10.0249 65.0107 14.2878 46.1248 14.0198 45.093C13.7519 44.0624 -1.09546 31.9782 0.578896 27.0716C2.25325 22.1649 21.3101 21.081 21.9939 20.5729C22.6777 20.0649 29.8723 2.05078 35.0178 2.05078Z" fill="#FFBD39"/>
<path d="M35.0179 4.28906C39.813 4.28906 46.1019 21.7419 46.8342 22.199C47.5665 22.6549 65.6437 24.157 67.1168 27.6112C68.5899 31.0642 54.6046 43.2357 54.2663 44.0857C53.9281 44.9356 57.6636 63.0225 54.8556 65.3467C52.0476 67.6721 35.9963 58.2589 35.0167 58.2528C34.0371 58.2467 18.6344 67.7206 15.1778 65.3467C11.7212 62.974 16.3393 45.3696 16.0895 44.4081C15.8398 43.4479 1.35496 32.1845 2.91656 27.6112C4.47695 23.038 22.8852 22.673 23.5229 22.199C24.1606 21.7249 30.2216 4.28906 35.0179 4.28906Z" fill="url(#paint0_linear_1755_3581)"/>
<path d="M7.11508 28.4574C6.78166 25.2057 17.4486 23.2913 17.9202 27.0959C18.3894 30.9004 7.56974 32.8876 7.11508 28.4574Z" fill="white"/>
<path d="M20.6504 26.0269C20.5704 23.9355 23.7591 23.8082 23.9252 25.5237C24.1107 27.4454 20.7244 27.9837 20.6504 26.0269Z" fill="white"/>
<g opacity="0.6">
<g opacity="0.6">
<path d="M25.4067 45.5586C25.4067 47.6743 23.5481 49.3898 21.2578 49.3898C18.9663 49.3898 17.1089 47.6743 17.1089 45.5586C17.1089 43.4429 18.9663 41.7285 21.2578 41.7285C23.5481 41.7285 25.4067 43.4429 25.4067 45.5586Z" fill="#FF5F82"/>
</g>
<g opacity="0.6">
<path d="M52.914 41.8027C52.914 43.9184 51.0566 45.634 48.7651 45.634C46.4737 45.634 44.6162 43.9184 44.6162 41.8027C44.6162 39.687 46.4737 37.9727 48.7651 37.9727C51.0566 37.9727 52.914 39.687 52.914 41.8027Z" fill="#FF5F82"/>
</g>
</g>
<path d="M23.1759 28.3603C16.7039 28.7762 18.4595 38.2973 23.6596 38.124C28.8609 37.9494 29.6478 27.9433 23.1759 28.3603Z" fill="#541300"/>
<path d="M25.4214 32.8421C24.0453 32.7196 23.6076 35.3215 25.1667 35.5627C26.7259 35.804 27.377 33.0142 25.4214 32.8421Z" fill="white"/>
<path d="M46.6256 28.3603C53.0975 28.7762 51.3419 38.2973 46.1406 38.124C40.9405 37.9494 40.1537 27.9433 46.6256 28.3603Z" fill="#541300"/>
<path d="M44.3792 32.8421C45.7553 32.7196 46.193 35.3215 44.6338 35.5627C43.0746 35.804 42.4247 33.0142 44.3792 32.8421Z" fill="white"/>
<path d="M29.004 43.8669C27.9468 45.3569 29.4744 46.5075 30.4783 45.1241C32.4109 42.4616 37.6158 42.6847 39.5763 45.1241C40.6408 46.4481 42.0085 45.4418 41.0506 43.8669C38.8004 40.1653 31.9429 39.7264 29.004 43.8669Z" fill="#872A2A"/>
<path d="M21.064 38.543C18.2609 38.543 9.73151 56.1291 21.064 56.1291C32.3978 56.1291 23.8684 38.543 21.064 38.543Z" fill="#39D5FF"/>
<defs>
<linearGradient id="paint0_linear_1755_3581" x1="18.9798" y1="19.8491" x2="56.8318" y2="65.3182" gradientUnits="userSpaceOnUse">
<stop offset="0.043" stop-color="#FFF466"/>
<stop offset="0.0753" stop-color="#FFF466"/>
<stop offset="0.3152" stop-color="#FFEC5F"/>
<stop offset="0.6922" stop-color="#FFD54D"/>
<stop offset="0.8602" stop-color="#FFC943"/>
</linearGradient>
</defs>
</svg>
