<svg width="70" height="70" viewBox="0 0 70 70" fill="none" xmlns="http://www.w3.org/2000/svg">
<g clip-path="url(#clip0_1795_3689)">
<path d="M35.0019 1.71875C40.213 1.71875 47.396 19.9819 48.1916 20.4768C48.9873 20.9728 68.2794 23.3058 69.8794 27.0581C71.4793 30.8105 56.6356 44.3845 56.2673 45.3091C55.8989 46.2324 59.6083 65.5332 56.557 68.0601C53.5058 70.5858 36.0653 60.7089 35.0019 60.7028C33.9386 60.6966 17.2029 70.6386 13.4468 68.0601C9.69079 65.4816 14.008 46.354 13.7366 45.3091C13.4652 44.2654 -1.57116 32.0273 0.124517 27.0581C1.82019 22.0902 21.1197 20.9912 21.8122 20.4768C22.5048 19.9623 29.7909 1.71875 35.0019 1.71875Z" fill="#FFBD39"/>
<path d="M35.002 3.98633C39.8594 3.98633 46.2271 21.6626 46.9687 22.1243C47.7103 22.586 66.0178 24.1073 67.5096 27.6055C69.0015 31.1024 54.8381 43.4289 54.4967 44.2897C54.1542 45.1504 57.9372 63.4676 55.0935 65.8214C52.2497 68.1765 35.9941 58.6434 35.002 58.6372C34.0098 58.6311 18.4111 68.2256 14.9105 65.8214C11.4098 63.4185 16.0867 45.59 15.8338 44.6163C15.5809 43.6438 0.912827 32.237 2.49309 27.6055C4.07334 22.974 22.716 22.6044 23.3618 22.1243C24.0065 21.643 30.1445 3.98633 35.002 3.98633Z" fill="url(#paint0_linear_1795_3689)"/>
<path d="M6.74408 28.4622C6.40642 25.169 17.2091 23.2303 17.6868 27.0845C18.1632 30.9363 7.20576 32.9488 6.74408 28.4622Z" fill="white"/>
<path d="M20.4517 26.0015C20.3707 23.8835 23.5999 23.7545 23.7682 25.492C23.9572 27.4381 20.5278 27.9833 20.4517 26.0015Z" fill="white"/>
<g opacity="0.6">
<g opacity="0.6">
<path d="M25.6911 43.2753C25.6911 45.4179 23.81 47.1553 21.4893 47.1553C19.1687 47.1553 17.2876 45.4179 17.2876 43.2753C17.2876 41.1327 19.1699 39.3965 21.4893 39.3965C23.81 39.3965 25.6911 41.1339 25.6911 43.2753Z" fill="#FF5F82"/>
</g>
<g opacity="0.6">
<path d="M53.55 43.2753C53.55 45.4179 51.6689 47.1553 49.3482 47.1553C47.0276 47.1553 45.1465 45.4179 45.1465 43.2753C45.1465 41.1327 47.0276 39.3965 49.3482 39.3965C51.6689 39.3965 53.55 41.1339 53.55 43.2753Z" fill="#FF5F82"/>
</g>
</g>
<path d="M25.4121 42.6244C25.8615 42.2856 30.8405 42.5459 35.6353 42.5594C40.0568 42.5716 44.3212 42.3126 44.7399 42.6244C45.6141 43.2764 42.5752 50.7087 35.0803 50.7087C27.5842 50.7087 24.5489 43.2764 25.4121 42.6244Z" fill="#872A2A"/>
<path d="M22.1424 28.8498C10.7982 24.0784 11.9953 36.912 24.662 38.938C34.2786 31.3473 31.1844 20.2548 22.1424 28.8498Z" fill="#FF5F5F"/>
<path d="M47.7887 28.8484C58.9647 23.6926 58.2034 36.5606 45.6142 39.0163C35.7446 31.7572 38.4582 20.5653 47.7887 28.8484Z" fill="#FF5F5F"/>
</g>
<defs>
<linearGradient id="paint0_linear_1795_3689" x1="18.7598" y1="19.7434" x2="57.0938" y2="65.7915" gradientUnits="userSpaceOnUse">
<stop offset="0.043" stop-color="#FFF466"/>
<stop offset="0.0753" stop-color="#FFF466"/>
<stop offset="0.3152" stop-color="#FFEC5F"/>
<stop offset="0.6922" stop-color="#FFD54D"/>
<stop offset="0.8602" stop-color="#FFC943"/>
</linearGradient>
<clipPath id="clip0_1795_3689">
<rect width="70" height="70" fill="white"/>
</clipPath>
</defs>
</svg>
