<svg width="70" height="70" viewBox="0 0 70 70" fill="none" xmlns="http://www.w3.org/2000/svg">
<path d="M35.0172 1.64453C40.226 1.64453 47.4059 19.8999 48.2012 20.3945C48.9965 20.8904 68.2804 23.2235 69.8796 26.973C71.4788 30.7238 56.6416 44.2919 56.2734 45.2149C55.9064 46.1379 59.6129 65.4303 56.563 67.9562C53.5131 70.4808 36.08 60.6069 35.0172 60.602C33.9543 60.5958 17.2257 70.5336 13.4713 67.9562C9.71689 65.3775 14.0322 46.2594 13.761 45.2149C13.4897 44.1717 -1.54022 31.9388 0.154733 26.973C1.84968 22.0072 21.1409 20.9088 21.8331 20.3945C22.5266 19.8803 29.8096 1.64453 35.0172 1.64453Z" fill="#FFBD39"/>
<path d="M35.0172 3.91016C39.8726 3.91016 46.2375 21.5776 46.9788 22.0403C47.7201 22.5018 66.0197 24.0225 67.5109 27.5192C69.0021 31.0146 54.8448 43.3358 54.5036 44.1962C54.1612 45.0565 57.9426 63.3659 55.1001 65.7187C52.2576 68.0727 36.0089 58.5437 35.0172 58.5376C34.0255 58.5314 18.4347 68.1218 14.9344 65.7187C11.4352 63.3168 16.1101 45.4959 15.8573 44.5226C15.6045 43.5506 0.942752 32.1487 2.52233 27.5192C4.10191 22.8897 22.7365 22.5202 23.3821 22.0403C24.0277 21.5605 30.1631 3.91016 35.0172 3.91016Z" fill="url(#paint0_linear_1795_3452)"/>
<path d="M6.77142 28.3767C6.4339 25.085 17.232 23.147 17.7094 26.9996C18.1856 30.8498 7.2329 32.8614 6.77142 28.3767Z" fill="white"/>
<path d="M20.4746 25.9168C20.3936 23.7997 23.6215 23.6708 23.7897 25.4075C23.9775 27.3528 20.5495 27.8977 20.4746 25.9168Z" fill="white"/>
<g opacity="0.6">
<g opacity="0.6">
<path d="M24.8657 43.1838C24.8657 45.3255 22.9854 47.0622 20.6658 47.0622C18.3461 47.0622 16.4658 45.3255 16.4658 43.1838C16.4658 41.0421 18.3473 39.3066 20.6658 39.3066C22.9854 39.3066 24.8657 41.0433 24.8657 43.1838Z" fill="#FF5F82"/>
</g>
<g opacity="0.6">
<path d="M53.5571 43.1838C53.5571 45.3255 51.6768 47.0622 49.3572 47.0622C47.0375 47.0622 45.1572 45.3255 45.1572 43.1838C45.1572 41.0421 47.0375 39.3066 49.3572 39.3066C51.6768 39.3066 53.5571 41.0433 53.5571 43.1838Z" fill="#FF5F82"/>
</g>
</g>
<path d="M23.1427 30.1749C16.5912 30.5971 18.3684 40.2341 23.6324 40.0586C28.8977 39.8819 29.6942 29.7539 23.1427 30.1749Z" fill="#541300"/>
<path d="M25.4156 34.7113C24.0226 34.5873 23.5796 37.2212 25.1579 37.4654C26.7363 37.7096 27.3953 34.8856 25.4156 34.7113Z" fill="white"/>
<path d="M46.8805 30.1749C53.432 30.5971 51.6548 40.2341 46.3908 40.0586C41.1255 39.8819 40.329 29.7539 46.8805 30.1749Z" fill="#541300"/>
<path d="M44.6065 34.7113C46.0008 34.5873 46.4426 37.2212 44.8642 37.4654C43.2859 37.7096 42.6268 34.8856 44.6065 34.7113Z" fill="white"/>
<path d="M29.0426 45.8718C27.9723 47.3802 29.5188 48.5437 30.535 47.1433C32.4914 44.4481 37.7603 44.6739 39.7449 47.1433C40.8225 48.4836 42.207 47.4649 41.2386 45.8718C38.9594 42.1248 32.0164 41.6805 29.0426 45.8718Z" fill="#872A2A"/>
<defs>
<linearGradient id="paint0_linear_1795_3452" x1="18.7826" y1="19.6613" x2="57.1001" y2="65.6896" gradientUnits="userSpaceOnUse">
<stop offset="0.043" stop-color="#FFF466"/>
<stop offset="0.0753" stop-color="#FFF466"/>
<stop offset="0.3152" stop-color="#FFEC5F"/>
<stop offset="0.6922" stop-color="#FFD54D"/>
<stop offset="0.8602" stop-color="#FFC943"/>
</linearGradient>
</defs>
</svg>
