<svg width="70" height="70" viewBox="0 0 70 70" fill="none" xmlns="http://www.w3.org/2000/svg">
<g clip-path="url(#clip0_1795_3612)">
<path d="M35.0019 1.73633C40.213 1.73633 47.396 19.9995 48.1916 20.4944C48.9873 20.9904 68.2794 23.3234 69.8794 27.0757C71.4793 30.8281 56.6356 44.4021 56.2673 45.3254C55.9001 46.2488 59.6083 65.5495 56.557 68.0765C53.5058 70.6022 36.0653 60.724 35.0019 60.7191C33.9386 60.713 17.2029 70.655 13.4468 68.0765C9.69079 65.498 14.008 46.3703 13.7366 45.3254C13.4652 44.2817 -1.57116 32.0436 0.124517 27.0757C1.82019 22.1078 21.1197 21.0089 21.8122 20.4944C22.506 19.9799 29.7921 1.73633 35.0019 1.73633Z" fill="#FFBD39"/>
<path d="M35.0017 4.00391C39.8579 4.00391 46.2268 21.679 46.9685 22.1419C47.7101 22.6036 66.0187 24.1249 67.5094 27.6231C69.0012 31.12 54.8378 43.4465 54.4953 44.3072C54.1527 45.168 57.9357 63.4852 55.092 65.839C52.2483 68.1941 35.9926 58.661 35.0005 58.6548C34.0084 58.6487 18.4096 68.2432 14.909 65.839C11.4084 63.4361 16.0853 45.6076 15.8323 44.6339C15.5794 43.6614 0.911362 32.2546 2.49162 27.6231C4.07188 22.9916 22.7145 22.622 23.3604 22.1419C24.0074 21.6618 30.1443 4.00391 35.0017 4.00391Z" fill="url(#paint0_linear_1795_3612)"/>
<path d="M6.74408 28.4798C6.40642 25.1866 17.2091 23.2478 17.6868 27.1021C18.1632 30.9551 7.20576 32.9664 6.74408 28.4798Z" fill="white"/>
<path d="M20.4532 26.0191C20.3721 23.901 23.6026 23.7721 23.7696 25.5095C23.9575 27.4545 20.5281 27.9996 20.4532 26.0191Z" fill="white"/>
<g opacity="0.6">
<g opacity="0.6">
<path d="M24.5124 42.0253C24.5124 44.1679 22.6313 45.9053 20.3106 45.9053C17.99 45.9053 16.1089 44.1679 16.1089 42.0253C16.1089 39.8827 17.99 38.1465 20.3106 38.1465C22.6313 38.1465 24.5124 39.8827 24.5124 42.0253Z" fill="#FF5F82"/>
</g>
<g opacity="0.6">
<path d="M53.216 42.0253C53.216 44.1679 51.3349 45.9053 49.0142 45.9053C46.6936 45.9053 44.8125 44.1679 44.8125 42.0253C44.8125 39.8827 46.6936 38.1465 49.0142 38.1465C51.3349 38.1465 53.216 39.8827 53.216 42.0253Z" fill="#FF5F82"/>
</g>
</g>
<path d="M41.7147 33.9828C40.6084 33.0459 42.255 30.2402 46.6618 30.2402C51.0686 30.2402 52.6304 32.9845 51.7157 33.9828C50.9237 34.8459 49.9537 32.6665 46.7686 32.6665C43.586 32.6665 42.6504 34.7747 41.7147 33.9828Z" fill="#541300"/>
<path d="M22.2554 26.7784C15.7011 27.1996 17.479 36.842 22.7453 36.6664C28.0128 36.4896 28.8097 26.3572 22.2554 26.7784Z" fill="#541300"/>
<path d="M24.5295 31.3167C23.1358 31.1927 22.6926 33.8277 24.2716 34.0721C25.8506 34.3164 26.51 31.4911 24.5295 31.3167Z" fill="white"/>
<path d="M26.5246 38.6276C27.2576 38.0382 42.1909 38.0382 42.9325 38.6276C43.6741 39.217 41.0944 45.9407 34.7316 45.9407C28.3688 45.9407 25.7928 39.217 26.5246 38.6276Z" fill="#872A2A"/>
<path d="M30.5298 42.9566C29.4959 43.6577 29.6997 48.3064 30.515 51.1169C31.5157 54.566 38.2739 54.6998 38.9676 51.1169C39.6614 47.5353 40.026 43.5901 38.975 42.9566C37.9239 42.323 31.6041 42.2284 30.5298 42.9566Z" fill="#F982B3"/>
</g>
<defs>
<linearGradient id="paint0_linear_1795_3612" x1="18.76" y1="19.7611" x2="57.094" y2="65.8092" gradientUnits="userSpaceOnUse">
<stop offset="0.043" stop-color="#FFF466"/>
<stop offset="0.0753" stop-color="#FFF466"/>
<stop offset="0.3152" stop-color="#FFEC5F"/>
<stop offset="0.6922" stop-color="#FFD54D"/>
<stop offset="0.8602" stop-color="#FFC943"/>
</linearGradient>
<clipPath id="clip0_1795_3612">
<rect width="70" height="70" fill="white"/>
</clipPath>
</defs>
</svg>
