<svg width="24" height="24" viewBox="0 0 24 24" fill="none" xmlns="http://www.w3.org/2000/svg">
<g clip-path="url(#clip0_225_302)">
<path fill-rule="evenodd" clip-rule="evenodd" d="M9.52626 1.18286L8.73255 3.23143L5.99998 4.78114L3.82284 4.44857C3.45975 4.39902 3.09014 4.45863 2.76104 4.61982C2.43195 4.78101 2.15827 5.03648 1.97484 5.35371L1.23769 6.64629C1.04842 6.96815 0.961183 7.33985 0.987504 7.71232C1.01382 8.08479 1.15246 8.44052 1.38512 8.73257L2.76855 10.4486V13.5514L1.42284 15.2674C1.19018 15.5595 1.05154 15.9152 1.02522 16.2877C0.998897 16.6602 1.08613 17.0318 1.27541 17.3537L2.01255 18.6463C2.19598 18.9635 2.46966 19.219 2.79876 19.3802C3.12785 19.5414 3.49747 19.601 3.86055 19.5514L6.03769 19.2189L8.73426 20.7686L9.52798 22.8189C9.66157 23.1654 9.8967 23.4636 10.2026 23.6744C10.5084 23.8851 10.8708 23.9986 11.2423 24H12.7937C13.1659 23.9992 13.5292 23.8858 13.8358 23.6746C14.1423 23.4635 14.3779 23.1646 14.5114 22.8171L15.3051 20.7686L18 19.2189L20.1771 19.5514C20.5402 19.601 20.9098 19.5414 21.2389 19.3802C21.568 19.219 21.8417 18.9635 22.0251 18.6463L22.7623 17.3537C22.9515 17.0318 23.0388 16.6602 23.0125 16.2877C22.9861 15.9152 22.8475 15.5595 22.6148 15.2674L21.2314 13.5514V10.4486L22.5788 8.73257C22.8115 8.44052 22.9501 8.08479 22.9765 7.71232C23.0028 7.33985 22.9155 6.96815 22.7263 6.64629L21.9891 5.35371C21.8059 5.03632 21.5322 4.78071 21.2031 4.6195C20.8739 4.45829 20.5042 4.39878 20.1411 4.44857L17.964 4.78114L15.2674 3.23143L14.4737 1.18114C14.3398 0.834415 14.1044 0.536174 13.7982 0.325435C13.492 0.114696 13.1294 0.00127138 12.7577 0H11.2423C10.8704 0.00140541 10.5076 0.115081 10.2014 0.326142C9.89521 0.537202 9.65989 0.835808 9.52626 1.18286ZM12 15.8571C13.023 15.8571 14.004 15.4508 14.7274 14.7274C15.4507 14.0041 15.8571 13.023 15.8571 12C15.8571 10.977 15.4507 9.99594 14.7274 9.27259C14.004 8.54923 13.023 8.14286 12 8.14286C10.977 8.14286 9.99592 8.54923 9.27257 9.27259C8.54921 9.99594 8.14284 10.977 8.14284 12C8.14284 13.023 8.54921 14.0041 9.27257 14.7274C9.99592 15.4508 10.977 15.8571 12 15.8571Z" fill="#3A3A3A"/>
</g>
<defs>
<clipPath id="clip0_225_302">
<rect width="24" height="24" fill="white"/>
</clipPath>
</defs>
</svg>
