<svg width="24" height="24" viewBox="0 0 24 24" fill="none" xmlns="http://www.w3.org/2000/svg">
<path fill-rule="evenodd" clip-rule="evenodd" d="M20.5714 18.4286H20.1428V21.4286H20.5714C20.9124 21.4286 21.2394 21.564 21.4805 21.8051C21.7216 22.0463 21.8571 22.3733 21.8571 22.7143C21.8571 23.0553 21.7216 23.3823 21.4805 23.6234C21.2394 23.8645 20.9124 24 20.5714 24H6.21425C5.13444 24 4.09886 23.571 3.33532 22.8075C2.57178 22.044 2.14282 21.0084 2.14282 19.9286V3.85714C2.14282 2.83417 2.5492 1.85309 3.27255 1.12973C3.99591 0.406376 4.97699 0 5.99997 0L18 0C19.0229 0 20.004 0.406376 20.7274 1.12973C21.4507 1.85309 21.8571 2.83417 21.8571 3.85714V17.1429C21.8571 17.4838 21.7216 17.8109 21.4805 18.052C21.2394 18.2931 20.9124 18.4286 20.5714 18.4286ZM6.21425 18.4286H17.5714V21.4286H6.21425C5.81643 21.4286 5.4349 21.2705 5.15359 20.9892C4.87229 20.7079 4.71425 20.3264 4.71425 19.9286C4.71425 19.5307 4.87229 19.1492 5.15359 18.8679C5.4349 18.5866 5.81643 18.4286 6.21425 18.4286ZM12.2931 4.84971C12.0756 4.80636 11.8511 4.8118 11.6359 4.86564C11.4207 4.91947 11.2202 5.02036 11.0487 5.16104C10.8772 5.30172 10.739 5.47869 10.6441 5.67919C10.5492 5.8797 10.5 6.09875 10.5 6.32057C10.5 6.60473 10.3871 6.87725 10.1862 7.07819C9.98522 7.27912 9.7127 7.392 9.42854 7.392C9.14438 7.392 8.87185 7.27912 8.67092 7.07819C8.46999 6.87725 8.35711 6.60473 8.35711 6.32057C8.3571 5.64633 8.54422 4.98531 8.89763 4.41112C9.25105 3.83692 9.75688 3.37207 10.3588 3.06831C10.9608 2.76456 11.6352 2.63383 12.307 2.69066C12.9789 2.7475 13.6218 2.98968 14.1641 3.39024C14.7065 3.7908 15.1271 4.33402 15.379 4.95943C15.6309 5.58483 15.7043 6.26789 15.591 6.93255C15.4778 7.59721 15.1823 8.21739 14.7374 8.72405C14.2926 9.23072 13.7158 9.60398 13.0714 9.80229C13.0643 10.0864 12.9447 10.3562 12.7388 10.5521C12.5329 10.7481 12.2576 10.8542 11.9734 10.8471C11.6892 10.8401 11.4195 10.7205 11.2236 10.5145C11.0276 10.3086 10.9215 10.0333 10.9285 9.74914V8.892C10.9285 8.30057 11.4085 7.82057 12 7.82057C12.372 7.81988 12.7304 7.68099 13.0058 7.43086C13.2811 7.18074 13.4537 6.83723 13.49 6.46701C13.5263 6.0968 13.4238 5.7263 13.2023 5.42744C12.9808 5.12858 12.6562 4.92268 12.2914 4.84971H12.2931ZM12 15.2297C11.6021 15.2297 11.2206 15.0717 10.9393 14.7904C10.658 14.5091 10.5 14.1275 10.5 13.7297C10.5 13.3319 10.658 12.9504 10.9393 12.6691C11.2206 12.3877 11.6021 12.2297 12 12.2297C12.3978 12.2297 12.7793 12.3877 13.0606 12.6691C13.3419 12.9504 13.5 13.3319 13.5 13.7297C13.5 14.1275 13.3419 14.5091 13.0606 14.7904C12.7793 15.0717 12.3978 15.2297 12 15.2297Z" fill="#3A3A3A"/>
</svg>
