<svg width="24" height="24" viewBox="0 0 24 24" fill="none" xmlns="http://www.w3.org/2000/svg">
<g clip-path="url(#clip0_93_18804)">
<path d="M4.02189 1.99716C4.02189 1.81078 4.17353 1.65914 4.3599 1.65914H17.8832V0.386297C17.8832 0.172922 17.7102 0 17.4969 0H2.74909C2.53571 0 2.36279 0.172969 2.36279 0.386297V21.1035C2.36279 21.3169 2.53576 21.4898 2.74909 21.4898H4.02189V1.99716Z" fill="#FFE177"/>
<path d="M17.4969 0H15.4771C15.6904 0 15.8633 0.172969 15.8633 0.386297V1.65909H17.8832V0.386297C17.8833 0.172969 17.7103 0 17.4969 0Z" fill="#FFD15B"/>
<path d="M13.2826 19.7984C13.2826 17.5083 15.1458 15.6452 17.4359 15.6452C18.1845 15.6452 18.8868 15.8453 19.494 16.1933V1.99714C19.494 1.78376 19.3211 1.61084 19.1077 1.61084H4.35993C4.14655 1.61084 3.97363 1.78381 3.97363 1.99714V22.7143C3.97363 22.9277 4.1466 23.1006 4.35993 23.1006H14.9209C13.9261 22.3412 13.2826 21.1438 13.2826 19.7984Z" fill="#F9F3F1"/>
<path d="M19.1076 1.61084H17.0898C17.3032 1.61084 17.4761 1.78381 17.4761 1.99714V15.6459C18.2096 15.6529 18.8977 15.8516 19.4939 16.1933V1.99714C19.494 1.78376 19.321 1.61084 19.1076 1.61084Z" fill="#F9F3F1"/>
<path d="M6.34668 4.37018H3.97363V1.99714C3.97363 1.78376 4.1466 1.61084 4.35993 1.61084H6.73298V3.98389C6.73302 4.19726 6.56005 4.37018 6.34668 4.37018Z" fill="#E1D3CE"/>
<path d="M17.4359 23.9998C19.7564 23.9998 21.6375 22.1187 21.6375 19.7982C21.6375 17.4778 19.7564 15.5967 17.4359 15.5967C15.1155 15.5967 13.2344 17.4778 13.2344 19.7982C13.2344 22.1187 15.1155 23.9998 17.4359 23.9998Z" fill="#00F2A6"/>
<path d="M17.4358 15.5967C17.1756 15.5967 16.921 15.6205 16.6738 15.6658C18.6304 16.0243 20.1134 17.738 20.1134 19.7982C20.1134 21.8584 18.6305 23.5721 16.6738 23.9306C16.921 23.9759 17.1756 23.9998 17.4358 23.9998C19.7563 23.9998 21.6374 22.1187 21.6374 19.7982C21.6373 17.4777 19.7563 15.5967 17.4358 15.5967Z" fill="#00F2A6"/>
<path d="M16.9549 21.5503C16.8609 21.5503 16.7706 21.5125 16.7045 21.4455L15.244 19.9632C15.1077 19.8248 15.1093 19.6023 15.2476 19.466C15.3859 19.3297 15.6085 19.3313 15.7448 19.4697L16.9498 20.6925L19.1221 18.3961C19.2555 18.255 19.478 18.2489 19.6191 18.3823C19.7601 18.5158 19.7663 18.7383 19.6329 18.8793L17.2104 21.4402C17.1448 21.5096 17.0539 21.5492 16.9586 21.5502C16.9573 21.5503 16.9562 21.5503 16.9549 21.5503Z" fill="white"/>
<path d="M16.5356 8.02539H6.93213C6.73797 8.02539 6.58057 7.86798 6.58057 7.67383C6.58057 7.47967 6.73797 7.32227 6.93213 7.32227H16.5356C16.7298 7.32227 16.8872 7.47967 16.8872 7.67383C16.8872 7.86798 16.7298 8.02539 16.5356 8.02539Z" fill="#B9ACAC"/>
<path d="M7.59236 10.0664H6.93213C6.73797 10.0664 6.58057 9.909 6.58057 9.71484C6.58057 9.52069 6.73797 9.36328 6.93213 9.36328H7.59236C7.78652 9.36328 7.94393 9.52069 7.94393 9.71484C7.94393 9.909 7.78652 10.0664 7.59236 10.0664Z" fill="#B9ACAC"/>
<path d="M16.5355 10.0664H9.03271C8.83856 10.0664 8.68115 9.909 8.68115 9.71484C8.68115 9.52069 8.83856 9.36328 9.03271 9.36328H16.5355C16.7296 9.36328 16.887 9.52069 16.887 9.71484C16.887 9.909 16.7296 10.0664 16.5355 10.0664Z" fill="#B9ACAC"/>
<path d="M16.5356 12.1069H6.93213C6.73797 12.1069 6.58057 11.9495 6.58057 11.7554C6.58057 11.5612 6.73797 11.4038 6.93213 11.4038H16.5356C16.7298 11.4038 16.8872 11.5612 16.8872 11.7554C16.8872 11.9495 16.7298 12.1069 16.5356 12.1069Z" fill="#B9ACAC"/>
<path d="M7.59236 14.1479H6.93213C6.73797 14.1479 6.58057 13.9905 6.58057 13.7964C6.58057 13.6022 6.73797 13.4448 6.93213 13.4448H7.59236C7.78652 13.4448 7.94393 13.6022 7.94393 13.7964C7.94393 13.9905 7.78652 14.1479 7.59236 14.1479Z" fill="#B9ACAC"/>
<path d="M12.5796 16.1885H6.93213C6.73797 16.1885 6.58057 16.0311 6.58057 15.8369C6.58057 15.6428 6.73797 15.4854 6.93213 15.4854H12.5796C12.7738 15.4854 12.9312 15.6428 12.9312 15.8369C12.9312 16.0311 12.7738 16.1885 12.5796 16.1885Z" fill="#B9ACAC"/>
<path d="M7.42497 18.2295H6.93213C6.73797 18.2295 6.58057 18.0721 6.58057 17.8779C6.58057 17.6838 6.73797 17.5264 6.93213 17.5264H7.42497C7.61913 17.5264 7.77653 17.6838 7.77653 17.8779C7.77653 18.0721 7.61913 18.2295 7.42497 18.2295Z" fill="#B9ACAC"/>
<path d="M9.51941 18.2295H9.02661C8.83246 18.2295 8.67505 18.0721 8.67505 17.8779C8.67505 17.6838 8.83246 17.5264 9.02661 17.5264H9.51941C9.71356 17.5264 9.87097 17.6838 9.87097 17.8779C9.87097 18.0721 9.71356 18.2295 9.51941 18.2295Z" fill="#B9ACAC"/>
<path d="M11.6139 18.2295H11.1211C10.9269 18.2295 10.7695 18.0721 10.7695 17.8779C10.7695 17.6838 10.9269 17.5264 11.1211 17.5264H11.6139C11.808 17.5264 11.9655 17.6838 11.9655 17.8779C11.9655 18.0721 11.808 18.2295 11.6139 18.2295Z" fill="#B9ACAC"/>
<path d="M11.6138 20.27H6.93213C6.73797 20.27 6.58057 20.1126 6.58057 19.9185C6.58057 19.7243 6.73797 19.5669 6.93213 19.5669H11.6138C11.808 19.5669 11.9654 19.7243 11.9654 19.9185C11.9654 20.1126 11.808 20.27 11.6138 20.27Z" fill="#B9ACAC"/>
<path d="M16.5355 14.1479H9.03271C8.83856 14.1479 8.68115 13.9905 8.68115 13.7964C8.68115 13.6022 8.83856 13.4448 9.03271 13.4448H16.5355C16.7296 13.4448 16.887 13.6022 16.887 13.7964C16.887 13.9905 16.7296 14.1479 16.5355 14.1479Z" fill="#B9ACAC"/>
<path d="M3.97363 4.37018H6.34668C6.56005 4.37018 6.73298 4.19721 6.73298 3.98389V1.61084L3.97363 4.37018Z" fill="#F3EAE6"/>
<path d="M15.035 4.72168H8.43262C8.23846 4.72168 8.08105 4.56427 8.08105 4.37012C8.08105 4.17596 8.23846 4.01855 8.43262 4.01855H15.0351C15.2292 4.01855 15.3866 4.17596 15.3866 4.37012C15.3866 4.56427 15.2292 4.72168 15.035 4.72168Z" fill="#B9ACAC"/>
</g>
<defs>
<clipPath id="clip0_93_18804">
<rect width="24" height="24" fill="white"/>
</clipPath>
</defs>
</svg>
