<svg width="24" height="24" viewBox="0 0 24 24" fill="none" xmlns="http://www.w3.org/2000/svg">
<g clip-path="url(#clip0_194_9063)">
<path fill-rule="evenodd" clip-rule="evenodd" d="M16.4928 0.657525C16.9148 0.236466 17.4866 0 18.0828 0C18.679 0 19.2508 0.236466 19.6728 0.657525L22.2696 3.25432C22.6885 3.67799 22.9234 4.24974 22.9234 4.84552C22.9234 5.44131 22.6885 6.01306 22.2696 6.43672L11.208 17.5079C11.1085 17.6083 10.9768 17.6704 10.836 17.6831L5.4528 18.1319C5.36586 18.1392 5.27838 18.1274 5.19646 18.0975C5.11453 18.0675 5.04013 18.02 4.97844 17.9583C4.91675 17.8966 4.86926 17.8222 4.83927 17.7403C4.80928 17.6583 4.79752 17.5709 4.8048 17.4839L5.256 12.1031C5.26756 11.9618 5.32878 11.8292 5.4288 11.7287L16.4904 0.657525H16.4928ZM1.8 20.3999H22.2C22.6774 20.3999 23.1352 20.5896 23.4728 20.9271C23.8104 21.2647 24 21.7225 24 22.1999C24 22.6773 23.8104 23.1351 23.4728 23.4727C23.1352 23.8103 22.6774 23.9999 22.2 23.9999H1.8C1.32261 23.9999 0.864773 23.8103 0.527208 23.4727C0.189642 23.1351 0 22.6773 0 22.1999C0 21.7225 0.189642 21.2647 0.527208 20.9271C0.864773 20.5896 1.32261 20.3999 1.8 20.3999Z" fill="#8D8D8D"/>
</g>
<defs>
<clipPath id="clip0_194_9063">
<rect width="24" height="24" fill="white"/>
</clipPath>
</defs>
</svg>
