<svg width="25" height="24" viewBox="0 0 25 24" fill="none" xmlns="http://www.w3.org/2000/svg">
<g clip-path="url(#clip0_194_8961)">
<path d="M23.9973 7.04442C23.7926 6.9174 23.559 6.845 23.3186 6.83409C23.0782 6.82318 22.839 6.87412 22.6237 6.98208L19.0194 8.79117V6.83333C19.0194 6.08189 18.722 5.36122 18.1925 4.82986C17.6629 4.29851 16.9448 4 16.1959 4H3.49003C2.74119 4 2.02301 4.29851 1.4935 4.82986C0.963982 5.36122 0.666504 6.08189 0.666504 6.83333V18.1667C0.666504 18.9181 0.963982 19.6388 1.4935 20.1701C2.02301 20.7015 2.74119 21 3.49003 21H16.1959C16.9448 21 17.6629 20.7015 18.1925 20.1701C18.722 19.6388 19.0194 18.9181 19.0194 18.1667V16.2088L22.6237 18.0165C22.8194 18.1154 23.0356 18.1669 23.2547 18.1667C23.6292 18.1667 23.9883 18.0174 24.253 17.7517C24.5178 17.4861 24.6665 17.1257 24.6665 16.75V8.25C24.6666 8.00847 24.6052 7.77092 24.4881 7.55992C24.371 7.34891 24.202 7.17146 23.9973 7.04442Z" fill="#8D8D8D"/>
</g>
<defs>
<clipPath id="clip0_194_8961">
<rect width="24" height="24" fill="white" transform="translate(0.666504)"/>
</clipPath>
</defs>
</svg>
