<svg width="40" height="40" viewBox="0 0 40 40" fill="none" xmlns="http://www.w3.org/2000/svg">
<g clip-path="url(#clip0_879_330)">
<path d="M39.9426 15.4108C39.8048 14.9864 39.438 14.6773 38.9966 14.6132L26.5965 12.8112L21.0509 1.57471C20.8535 1.17463 20.4461 0.921509 20 0.921509C19.554 0.921509 19.1466 1.17463 18.9492 1.57471L13.4032 12.8111L1.00335 14.6132C0.562022 14.6773 0.195147 14.9864 0.0574132 15.4106C-0.0804772 15.835 0.0345226 16.3007 0.353897 16.6119L9.32638 25.3584L7.20857 37.7085C7.13318 38.1483 7.31396 38.5925 7.67482 38.8548C8.03568 39.1169 8.51396 39.1516 8.90896 38.9439L20 33.1129L31.0906 38.9439C31.2621 39.034 31.4493 39.0785 31.6359 39.0785C31.8788 39.0785 32.1207 39.0031 32.3248 38.8548C32.6856 38.5925 32.8664 38.1482 32.791 37.7085L30.6726 25.3584L39.646 16.6119C39.9655 16.3006 40.0805 15.8349 39.9426 15.4108Z" fill="#808080"/>
<path d="M39.9425 15.4108C39.8047 14.9864 39.438 14.6773 38.9966 14.6132L26.5965 12.8112L21.0509 1.57471C20.8534 1.17463 20.4461 0.921509 20 0.921509V33.1129L31.0907 38.9439C31.2622 39.0341 31.4494 39.0785 31.6359 39.0785C31.8789 39.0785 32.1208 39.0032 32.3248 38.8549C32.6857 38.5926 32.8665 38.1482 32.7911 37.7086L30.6726 25.3584L39.646 16.6119C39.9654 16.3006 40.0804 15.8349 39.9425 15.4108Z" fill="#676665"/>
</g>
<defs>
<clipPath id="clip0_879_330">
<rect width="40" height="40" fill="white"/>
</clipPath>
</defs>
</svg>
